<svg xmlns="http://www.w3.org/2000/svg" width="100" height="100" viewBox="0 0 100 100"><g fill="none" fill-rule="evenodd"><path d="M0 0h100v100H0z"/><path fill="#1000C5" d="M78.07 66.262V29.738L57.777 48l20.291 18.262zm-.036 2.969H21.968L43.888 49.5 50 55l6.111-5.5 21.923 19.73zm-56.066-3.003V29.772L42.222 48 21.968 66.228zM78.034 26.77H21.968L50 52l28.034-25.23zM20 25h60v46H20V25zM41 9v14h-2V9h2zm20 0v14h-2V9h2zM51 5v16h-2V5h2zM2 93h96V73H83.5l-15 8h-37l-15-8H2v20zM0 71h17l15 8h36l15-8h17v24H0V71z"/></g></svg>