<svg xmlns="http://www.w3.org/2000/svg" width="100" height="100" viewBox="0 0 100 100">
  <g fill="none" fill-rule="evenodd">
    <rect width="100" height="100"/>
    <path fill="#1000C5" d="M78.0690687,66.2621618 L78.0690687,29.7378382 L57.7777778,48 L78.0690687,66.2621618 Z M78.034188,69.2307692 L21.968443,69.2307692 L43.8888889,49.5 L50,55 L56.1111111,49.5 L78.034188,69.2307692 Z M21.968443,66.2284013 L21.968443,29.7715987 L42.2222222,48 L21.968443,66.2284013 Z M78.034188,26.7692308 L21.968443,26.7692308 L50,52 L78.034188,26.7692308 Z M20,25 L80,25 L80,71 L20,71 L20,25 Z"/>
    <path fill="#1000C5" d="M45,23 L59,23 L59,25 L45,25 L45,23 Z M45,3 L59,3 L59,5 L45,5 L45,3 Z M41,13 L57,13 L57,15 L41,15 L41,13 Z" transform="rotate(90 50 14)"/>
    <path fill="#1000C5" d="M2,93 L98,93 L98,73 L83.5,73 L68.5,81 L31.5,81 L16.5,73 L2,73 L2,93 Z M0,71 L17,71 L32,79 L68,79 L83,71 L100,71 L100,95 L0,95 L0,71 Z"/>
  </g>
</svg>
