<svg xmlns="http://www.w3.org/2000/svg" width="292" height="237" viewBox="0 0 292 237" xmlns:xlink="http://www.w3.org/1999/xlink">
  <defs>
    <filter id="e" width="200%" height="200%" x="-50%" y="-50%" filterUnits="objectBoundingBox">
      <feOffset in="SourceAlpha" result="shadowOffsetOuter1"/>
      <feGaussianBlur stdDeviation="8" in="shadowOffsetOuter1" result="shadowBlurOuter1"/>
      <feColorMatrix values="0 0 0 0 0 0 0 0 0 0 0 0 0 0 0 0 0 0 0.1 0" in="shadowBlurOuter1" result="shadowMatrixOuter1"/>
      <feMerge>
        <feMergeNode in="shadowMatrixOuter1"/>
        <feMergeNode in="SourceGraphic"/>
      </feMerge>
    </filter>
    <linearGradient id="h" x1="50%" x2="50%" y1="7.268%" y2="100%">
      <stop stop-color="#FFFFFF" offset="0%"/>
      <stop stop-color="#FFFFFF" stop-opacity="0" offset="100%"/>
    </linearGradient>
    <linearGradient id="f" x1="50%" x2="50%" y1="6.909%" y2="100%">
      <stop stop-color="#CCCCCC" offset="0%"/>
      <stop stop-color="#F1F1F1" stop-opacity="0" offset="100%"/>
    </linearGradient>
    <rect id="a" width="260" height="212" rx="4"/>
    <mask id="g" width="260" height="212" x="0" y="0" fill="white">
      <use xlink:href="#a"/>
    </mask>
    <path id="b" d="M104,42 C118.140739,42 135.208313,45.9934464 146.542058,57.698958 C154.018618,65.4207629 166,57.698958 156.380139,47.6332109 C146.760279,37.5674637 124.842089,27 104,27 C82.8823048,27 60.2284922,38.2314009 51.1142461,48.1548542 C42,58.0783074 53.7964806,65.7821141 61.0508631,58.0783074 C72.3499451,46.0792234 89.6118233,42 104,42 Z"/>
    <mask id="i" width="112.165" height="34.216" x="0" y="0" fill="white">
      <use xlink:href="#b"/>
    </mask>
    <path id="c" d="M20,12 C23.3137085,12 26,9.3137085 26,6 C26,2.6862915 23.3137085,0 20,0 C16.6862915,0 14,2.6862915 14,6 C14,9.3137085 16.6862915,12 20,12 Z"/>
    <mask id="j" width="16" height="16" x="-2" y="-2">
      <rect width="16" height="16" x="12" y="-2" fill="white"/>
      <use fill="black" xlink:href="#c"/>
    </mask>
    <circle id="d" cx="188" cy="6" r="6"/>
    <mask id="k" width="16" height="16" x="-2" y="-2">
      <rect width="16" height="16" x="180" y="-2" fill="white"/>
      <use fill="black" xlink:href="#d"/>
    </mask>
  </defs>
  <g fill="none" fill-rule="evenodd" filter="url(#e)" transform="translate(16 16)">
    <use fill="url(#h)" stroke="url(#f)" stroke-width="8" mask="url(#g)" xlink:href="#a"/>
    <rect width="260" height="20" fill="#CCCCCC"/>
    <g transform="translate(26 73)">
      <use fill="#CCCCCC" stroke="#222222" stroke-width="4" mask="url(#i)" xlink:href="#b"/>
      <path fill="#FFFFFF" d="M90,31 C90,31 97,29 104,29 C111,29 118,31 118,31 L118,34 C118,35.6568542 116.649502,37 115.00351,37 L92.9964905,37 C91.3415745,37 90,35.6534829 90,34 L90,31 Z"/>
      <ellipse cx="20" cy="24" fill="#E5E5E5" rx="20" ry="4"/>
      <ellipse cx="188" cy="24" fill="#E5E5E5" rx="20" ry="4"/>
      <use fill="#222222" fill-opacity=".7" xlink:href="#c"/>
      <use stroke="#222222" stroke-width="4" mask="url(#j)" xlink:href="#c"/>
      <circle cx="22" cy="4" r="2" fill="#FFFFFF"/>
      <use fill="#222222" fill-opacity=".7" xlink:href="#d"/>
      <use stroke="#222222" stroke-width="4" mask="url(#k)" xlink:href="#d"/>
      <circle cx="190" cy="4" r="2" fill="#FFFFFF"/>
    </g>
  </g>
</svg>
