<svg xmlns="http://www.w3.org/2000/svg" width="292" height="237" viewBox="0 0 292 237" xmlns:xlink="http://www.w3.org/1999/xlink"><defs><filter id="e" width="200%" height="200%" x="-50%" y="-50%" filterUnits="objectBoundingBox"><feOffset in="SourceAlpha" result="shadowOffsetOuter1"/><feGaussianBlur stdDeviation="8" in="shadowOffsetOuter1" result="shadowBlurOuter1"/><feColorMatrix values="0 0 0 0 0 0 0 0 0 0 0 0 0 0 0 0 0 0 0.1 0" in="shadowBlurOuter1" result="shadowMatrixOuter1"/><feMerge><feMergeNode in="shadowMatrixOuter1"/><feMergeNode in="SourceGraphic"/></feMerge></filter><linearGradient id="f" x1="50%" x2="50%" y1="7.268%" y2="100%"><stop stop-color="#FFF" offset="0%"/><stop stop-color="#FFF" stop-opacity="0" offset="100%"/></linearGradient><linearGradient id="g" x1="50%" x2="50%" y1="6.909%" y2="100%"><stop stop-color="#CCC" offset="0%"/><stop stop-color="#F1F1F1" stop-opacity="0" offset="100%"/></linearGradient><rect id="a" width="260" height="212" rx="4"/><mask id="h" width="260" height="212" x="0" y="0" fill="#fff"><use xlink:href="#a"/></mask><path id="b" d="M104 42c14.14 0 31.208 3.993 42.542 15.699 7.477 7.722 19.458 0 9.838-10.066S124.842 27 104 27c-21.118 0-43.772 11.231-52.886 21.155-9.114 9.923 2.682 17.627 9.937 9.923C72.35 46.08 89.61 42 104 42z"/><mask id="i" width="112.165" height="34.216" x="0" y="0" fill="#fff"><use xlink:href="#b"/></mask><path id="c" d="M20 12a6 6 0 1 0 0-12 6 6 0 0 0 0 12z"/><mask id="j" width="16" height="16" x="-2" y="-2"><path fill="#fff" d="M12-2h16v16H12z"/><use xlink:href="#c"/></mask><circle id="d" cx="188" cy="6" r="6"/><mask id="k" width="16" height="16" x="-2" y="-2"><path fill="#fff" d="M180-2h16v16h-16z"/><use xlink:href="#d"/></mask></defs><g fill="none" fill-rule="evenodd" filter="url(#e)" transform="translate(16 16)"><use fill="url(#f)" stroke="url(#g)" stroke-width="8" mask="url(#h)" xlink:href="#a"/><path fill="#CCC" d="M0 0h260v20H0z"/><g transform="translate(26 73)"><use fill="#CCC" stroke="#222" stroke-width="4" mask="url(#i)" xlink:href="#b"/><path fill="#FFF" d="M90 31s7-2 14-2 14 2 14 2v3c0 1.657-1.35 3-2.996 3H92.996A3 3 0 0 1 90 34v-3z"/><ellipse cx="20" cy="24" fill="#E5E5E5" rx="20" ry="4"/><ellipse cx="188" cy="24" fill="#E5E5E5" rx="20" ry="4"/><use fill="#222" fill-opacity=".7" xlink:href="#c"/><use stroke="#222" stroke-width="4" mask="url(#j)" xlink:href="#c"/><circle cx="22" cy="4" r="2" fill="#FFF"/><use fill="#222" fill-opacity=".7" xlink:href="#d"/><use stroke="#222" stroke-width="4" mask="url(#k)" xlink:href="#d"/><circle cx="190" cy="4" r="2" fill="#FFF"/></g></g></svg>