<svg xmlns="http://www.w3.org/2000/svg" width="100" height="100" viewBox="0 0 100 100" xmlns:xlink="http://www.w3.org/1999/xlink">
  <defs>
    <path id="a" d="M6,55 L64,55 L64,57 L6,57 L6,55 Z M6,73 L64,73 L64,75 L6,75 L6,73 Z M6,61 L64,61 L64,63 L6,63 L6,61 Z M6,79 L64,79 L64,81 L6,81 L6,79 Z M6,67 L46,67 L46,69 L6,69 L6,67 Z M6,85 L46,85 L46,87 L6,87 L6,85 Z"/>
    <mask id="b" width="58" height="32" x="0" y="0" fill="white">
      <use xlink:href="#a"/>
    </mask>
  </defs>
  <g fill="none" fill-rule="evenodd">
    <rect width="100" height="100"/>
    <path fill="#1000C5" d="M98.0024621,93 C97.9988522,93 98,7.00596461 98,7.00596461 C98,7.00235415 1.99753791,7 1.99753791,7 C2.00114781,7 2,92.9940354 2,92.9940354 C2,92.9976458 98.0024621,93 98.0024621,93 Z M0,7.00596461 C0,5.89810095 0.895051472,5 1.99753791,5 L98.0024621,5 C99.1056718,5 100,5.89076161 100,7.00596461 L100,92.9940354 C100,94.1018991 99.1049485,95 98.0024621,95 L1.99753791,95 C0.894328186,95 0,94.1092384 0,92.9940354 L0,7.00596461 Z"/>
    <use stroke="#1000C5" stroke-width="2" mask="url(#b)" xlink:href="#a"/>
    <rect width="58" height="30" x="6" y="20" fill="#1000C5"/>
    <path fill="#1000C5" d="M81.5,42 C86.7467051,42 91,37.7467051 91,32.5 C91,27.2532949 86.7467051,23 81.5,23 C76.2532949,23 72,27.2532949 72,32.5 C72,37.7467051 76.2532949,42 81.5,42 Z M81.5,45 C74.5964406,45 69,39.4035594 69,32.5 C69,25.5964406 74.5964406,20 81.5,20 C88.4035594,20 94,25.5964406 94,32.5 C94,39.4035594 88.4035594,45 81.5,45 Z"/>
    <rect width="100" height="8" y="5" fill="#1000C5" rx="2"/>
  </g>
</svg>
