<svg xmlns="http://www.w3.org/2000/svg" width="100" height="100" viewBox="0 0 100 100" xmlns:xlink="http://www.w3.org/1999/xlink"><defs><path id="a" d="M6 55h58v2H6v-2zm0 18h58v2H6v-2zm0-12h58v2H6v-2zm0 18h58v2H6v-2zm0-12h40v2H6v-2zm0 18h40v2H6v-2z"/><mask id="b" width="58" height="32" x="0" y="0" fill="#fff"><use xlink:href="#a"/></mask></defs><g fill="none" fill-rule="evenodd"><path d="M0 0h100v100H0z"/><path fill="#1000C5" d="M98.002 93C98 93 98 7.006 98 7.006 98 7.002 1.998 7 1.998 7 2 7 2 92.994 2 92.994c0 .004 96.002.006 96.002.006zM0 7.006C0 5.898.895 5 1.998 5h96.004C99.106 5 100 5.89 100 7.006v85.988A2.002 2.002 0 0 1 98.002 95H1.998A1.997 1.997 0 0 1 0 92.994V7.006z"/><use stroke="#1000C5" stroke-width="2" mask="url(#b)" xlink:href="#a"/><path fill="#1000C5" d="M6 20h58v30H6zM81.5 42a9.5 9.5 0 1 0 0-19 9.5 9.5 0 0 0 0 19zm0 3C74.596 45 69 39.404 69 32.5S74.596 20 81.5 20 94 25.596 94 32.5 88.404 45 81.5 45z"/><rect width="100" height="8" y="5" fill="#1000C5" rx="2"/></g></svg>