<svg xmlns="http://www.w3.org/2000/svg" width="320" height="258" viewBox="0 0 320 258"><g fill="#1000C5" fill-rule="evenodd"><path d="M1 257h318V1H1v256zM0 0h320v258H0V0z"/><path d="M22 170c0-1.105.887-2 1.992-2h147.016c1.1 0 1.992.888 1.992 2 0 1.105-.887 2-1.992 2H23.992c-1.1 0-1.992-.888-1.992-2zm0 11c0-1.105.887-2 1.992-2h147.016c1.1 0 1.992.888 1.992 2 0 1.105-.887 2-1.992 2H23.992c-1.1 0-1.992-.888-1.992-2zm0 11c0-1.105.887-2 1.992-2h147.016c1.1 0 1.992.888 1.992 2 0 1.105-.887 2-1.992 2H23.992c-1.1 0-1.992-.888-1.992-2zm0 11c0-1.105.887-2 1.992-2h147.016c1.1 0 1.992.888 1.992 2 0 1.105-.887 2-1.992 2H23.992c-1.1 0-1.992-.888-1.992-2zm0 11c0-1.105.887-2 1.992-2h147.016c1.1 0 1.992.888 1.992 2 0 1.105-.887 2-1.992 2H23.992c-1.1 0-1.992-.888-1.992-2zm0 11c0-1.105.887-2 1.992-2h147.016c1.1 0 1.992.888 1.992 2 0 1.105-.887 2-1.992 2H23.992c-1.1 0-1.992-.888-1.992-2zm0 11c0-1.105.9-2 2.003-2h83.994c1.106 0 2.003.888 2.003 2 0 1.105-.9 2-2.003 2H24.003A1.997 1.997 0 0 1 22 236zm0-77c0-1.105.887-2 1.992-2h147.016c1.1 0 1.992.888 1.992 2 0 1.105-.887 2-1.992 2H23.992c-1.1 0-1.992-.888-1.992-2zM0 0h320v21H0zM22 65h173v83H22zM22 38c0-2.21 1.787-4 3.998-4h164.004A4.002 4.002 0 0 1 194 38c0 2.21-1.787 4-3.998 4H25.998A4.002 4.002 0 0 1 22 38zm0 17c0-2.21 1.782-4 4.003-4h103.994A4.004 4.004 0 0 1 134 55c0 2.21-1.782 4-4.003 4H26.003A4.004 4.004 0 0 1 22 55zm200 154.5c0-1.38 1.133-2.5 2.529-2.5h70.942c1.397 0 2.529 1.123 2.529 2.5v20c0 1.38-1.133 2.5-2.529 2.5H224.53c-1.397 0-2.529-1.123-2.529-2.5v-20zm1 .143v19.714c0 .906.753 1.643 1.677 1.643h70.646c.925 0 1.677-.736 1.677-1.643v-19.714c0-.906-.753-1.643-1.677-1.643h-70.646c-.925 0-1.677.736-1.677 1.643zm-1-29.143c0-1.38 1.133-2.5 2.529-2.5h70.942c1.397 0 2.529 1.123 2.529 2.5v20c0 1.38-1.133 2.5-2.529 2.5H224.53c-1.397 0-2.529-1.123-2.529-2.5v-20zm1 .143v19.714c0 .906.753 1.643 1.677 1.643h70.646c.925 0 1.677-.736 1.677-1.643v-19.714c0-.906-.753-1.643-1.677-1.643h-70.646c-.925 0-1.677.736-1.677 1.643zM279.802 149h-55.273c-1.396 0-2.529 1.12-2.529 2.5v20c0 1.377 1.132 2.5 2.529 2.5h70.942c1.396 0 2.529-1.12 2.529-2.5v-4.071a30.182 30.182 0 0 1-1 .16v3.768c0 .907-.752 1.643-1.677 1.643h-70.646c-.924 0-1.677-.737-1.677-1.643v-19.714c0-.907.752-1.643 1.677-1.643h55.625a4.737 4.737 0 0 1-.5-1zM298 139.722v-19.187a2.534 2.534 0 0 0-2.529-2.535H224.53a2.532 2.532 0 0 0-2.529 2.535v19.93a2.534 2.534 0 0 0 2.529 2.535h62.852l-1.887-8.02c-.422-2.113.515-3.719 2.175-4.272 1.548-.516 3.21.088 3.698 1.554l2.546 9.55c.36-1.406 1.31-2.284 2.942-2.284.419 0 .8.067 1.145.194zm-40.316-2.038l-6.316-6.073 1.769-1.7 4.547 4.372 9.6-9.23 1.769 1.7-11.369 10.931z"/><path d="M306.903 142.75c-.566-1.468-1.645-2.38-3.312-2.38-1.655 0-2.73.9-3.3 2.35a8.104 8.104 0 0 0-.111-.375c-.563-1.734-1.636-2.817-3.325-2.817-1.632 0-2.582.878-2.942 2.284l-2.546-9.55c-.488-1.466-2.15-2.07-3.698-1.554-1.66.553-2.597 2.16-2.175 4.271l2.957 12.568a13.89 13.89 0 0 0-1.222-1.206c-.924-.803-1.887-1.41-2.873-1.738-3.325-1.109-6.375 2.323-3.838 5.704a77.566 77.566 0 0 0 2.032 2.548c.426.519 2.2 2.661 2.628 3.18l.389.474c3.25 3.963 4.972 6.35 4.972 7.02 0 .352-.234.666-.784 1.115-.023.019-.384.307-.483.392-.19.161-.325.297-.426.441-.478.687-.07 1.285 1.1 1.805.921.409 2.164.585 3.658.578a25.183 25.183 0 0 0 3.421-.275 29.721 29.721 0 0 0 1.56-.268c.896-.02 1.539-.646 2.31-1.881.905-1.447.933-1.486 1.012-1.486-.026 0 .037.068.15.293.059.118.4.907.526 1.158.617 1.233 1.415 1.917 2.693 1.917h2.518c.756 0 1.198-.627.96-1.34-.083-.157-.17-.386-.264-.826-.166-.776-.267-1.862-.267-3.308 0-1.026.375-1.682 1.359-2.666l.623-.615c1.538-1.538 2.229-2.873 2.229-5.14v-8.42c0-.376-.09-.91-.36-1.452-.464-.928-1.317-1.496-2.588-1.496-1.144 0-1.938.463-2.403 1.236a6.14 6.14 0 0 0-.18-.542zm.891 23.726h-2.518c-.898 0-1.45-.474-1.94-1.452-.111-.223-.453-1.012-.526-1.158-.247-.494-.493-.759-.903-.759-.379 0-.662.245-.988.704-.106.15-.213.318-.363.564.108-.177-.282.468-.374.615-.636 1.017-1.125 1.486-1.643 1.486-.164.025-.307.054-.51.092-.339.062-.717.125-1.123.183a24.37 24.37 0 0 1-3.306.267c-1.385.006-2.521-.155-3.311-.506-.758-.337-.83-.441-.751-.553.05-.073.14-.163.279-.281.088-.075.44-.356.471-.382.732-.598 1.093-1.083 1.093-1.768 0-.988-1.62-3.232-5.163-7.553l-.39-.475c-.428-.52-2.202-2.663-2.627-3.18a76.947 76.947 0 0 1-2.01-2.518c-2.002-2.67.305-5.265 2.899-4.4.867.288 1.74.838 2.587 1.575a13.14 13.14 0 0 1 1.73 1.834c.6.722 1.293.368 1.085-.516l-3.175-13.495c-.336-1.68.36-2.874 1.618-3.293 1.143-.381 2.307.042 2.625.997l3.146 11.797c.251.944 1.055.803.96-.174a4.94 4.94 0 0 1-.037-.278 5.414 5.414 0 0 1 .07-1.7c.25-1.14.9-1.778 2.156-1.778 1.258 0 2.062.81 2.524 2.234.285.879.38 1.777.377 2.39.01.162.02.261.03.333a.89.89 0 0 0 .027.126.496.496 0 0 0 .047.11c.062.11.062.11.354.213.31-.089.31-.089.381-.206.038-.072.038-.072.05-.114a.86.86 0 0 0 .027-.126c.01-.07.02-.167.029-.292a5.634 5.634 0 0 1 .365-1.987c.45-1.168 1.245-1.84 2.525-1.84 1.281 0 2.075.672 2.526 1.84.276.715.368 1.448.364 1.952.013.171.026.271.042.347.01.053.023.098.042.143.065.155.16.27.388.28.242.01.351-.11.422-.27a.732.732 0 0 0 .046-.145 2.87 2.87 0 0 0 .044-.304 2.66 2.66 0 0 1 .236-1.134c.3-.648.85-1.024 1.785-1.024.94 0 1.508.379 1.834 1.03.118.236.195.492.238.75.025.153.033.268.033.325v8.421c0 2.014-.588 3.15-1.982 4.545-.105.105-.522.513-.623.614-1.127 1.127-1.605 1.965-1.605 3.262 0 1.502.106 2.647.285 3.485.102.474.21.779.3.949.04.146-.007.198-.172.198zM296 150h2v9h-2v-9zm4 0h2v9h-2v-9zm4 0h2v9h-2v-9zm-44-48c16.569 0 30-13.431 30-30 0-16.569-13.431-30-30-30-16.569 0-30 13.431-30 30 0 16.569 13.431 30 30 30zm0 8c-20.987 0-38-17.013-38-38s17.013-38 38-38 38 17.013 38 38-17.013 38-38 38z"/></g></svg>