<svg xmlns="http://www.w3.org/2000/svg" width="380" height="306" viewBox="0 0 380 306">
  <g fill="#1000C5" fill-rule="evenodd">
    <path d="M1,305 L379,305 L379,1 L1,1 L1,305 Z M0,0 L380,0 L380,306 L0,306 L0,0 Z"/>
    <path d="M26,202.5 C26,201.119288 27.1260008,200 28.493078,200 L203.506922,200 C204.883811,200 206,201.109662 206,202.5 C206,203.880712 204.873999,205 203.506922,205 L28.493078,205 C27.1161891,205 26,203.890338 26,202.5 Z M26,215.5 C26,214.119288 27.1260008,213 28.493078,213 L203.506922,213 C204.883811,213 206,214.109662 206,215.5 C206,216.880712 204.873999,218 203.506922,218 L28.493078,218 C27.1161891,218 26,216.890338 26,215.5 Z M26,228.5 C26,227.119288 27.1260008,226 28.493078,226 L203.506922,226 C204.883811,226 206,227.109662 206,228.5 C206,229.880712 204.873999,231 203.506922,231 L28.493078,231 C27.1161891,231 26,229.890338 26,228.5 Z M26,241.5 C26,240.119288 27.1260008,239 28.493078,239 L203.506922,239 C204.883811,239 206,240.109662 206,241.5 C206,242.880712 204.873999,244 203.506922,244 L28.493078,244 C27.1161891,244 26,242.890338 26,241.5 Z M26,254.5 C26,253.119288 27.1260008,252 28.493078,252 L203.506922,252 C204.883811,252 206,253.109662 206,254.5 C206,255.880712 204.873999,257 203.506922,257 L28.493078,257 C27.1161891,257 26,255.890338 26,254.5 Z M26,267.5 C26,266.119288 27.1260008,265 28.493078,265 L203.506922,265 C204.883811,265 206,266.109662 206,267.5 C206,268.880712 204.873999,270 203.506922,270 L28.493078,270 C27.1161891,270 26,268.890338 26,267.5 Z M26,280.5 C26,279.119288 27.1149968,278 28.4936858,278 L127.506314,278 C128.883539,278 130,279.109662 130,280.5 C130,281.880712 128.885003,283 127.506314,283 L28.4936858,283 C27.1164612,283 26,281.890338 26,280.5 Z M26,189.5 C26,188.119288 27.1260008,187 28.493078,187 L203.506922,187 C204.883811,187 206,188.109662 206,189.5 C206,190.880712 204.873999,192 203.506922,192 L28.493078,192 C27.1161891,192 26,190.890338 26,189.5 Z"/>
    <rect width="380" height="25"/>
    <rect width="206" height="99" x="26" y="78"/>
    <path d="M26 46C26 43.2385763 28.2432682 41 30.9900918 41L227.009908 41C229.76586 41 232 43.2441952 232 46 232 48.7614237 229.756732 51 227.009908 51L30.9900918 51C28.2341402 51 26 48.7558048 26 46zM26 66C26 63.2385763 28.2388085 61 30.9910482 61L154.008952 61C156.765432 61 159 63.2441952 159 66 159 68.7614237 156.761191 71 154.008952 71L30.9910482 71C28.2345684 71 26 68.7558048 26 66zM265 248.000019L265 271.999981C265 273.102464 265.895015 274 266.994461 274L351.005539 274C352.105772 274 353 273.104407 353 271.999981L353 248.000019C353 246.897536 352.104985 246 351.005539 246L266.994461 246C265.894228 246 265 246.895593 265 248.000019zM264 248.000019C264 246.343154 265.342096 245 266.994461 245L351.005539 245C352.659334 245 354 246.347319 354 248.000019L354 271.999981C354 273.656846 352.657904 275 351.005539 275L266.994461 275C265.340666 275 264 273.652681 264 271.999981L264 248.000019zM265 214.000019L265 237.999981C265 239.102464 265.895015 240 266.994461 240L351.005539 240C352.105772 240 353 239.104407 353 237.999981L353 214.000019C353 212.897536 352.104985 212 351.005539 212L266.994461 212C265.894228 212 265 212.895593 265 214.000019zM264 214.000019C264 212.343154 265.342096 211 266.994461 211L351.005539 211C352.659334 211 354 212.347319 354 214.000019L354 237.999981C354 239.656846 352.657904 241 351.005539 241L266.994461 241C265.340666 241 264 239.652681 264 237.999981L264 214.000019zM332.286936 177L266.994461 177C265.342096 177 264 178.343154 264 180.000019L264 203.999981C264 205.652681 265.340666 207 266.994461 207L351.005539 207C352.657904 207 354 205.656846 354 203.999981L354 198.799027C353.689805 198.855329 353.354922 198.911389 353 198.965204L353 203.999981C353 205.104407 352.105772 206 351.005539 206L266.994461 206C265.895015 206 265 205.102464 265 203.999981L265 180.000019C265 178.895593 265.894228 178 266.994461 178L332.779714 178C332.57207 177.664464 332.409041 177.330068 332.286936 177zM354 165.968525L354 144.000019C354 142.347319 352.659334 141 351.005539 141L266.994461 141C265.342096 141 264 142.343154 264 144.000019L264 167.999981C264 169.652681 265.340666 171 266.994461 171L341.544749 171 339.024496 160.288097C338.522821 157.77972 339.635149 155.872872 341.606673 155.215698 343.445478 154.602762 345.41857 155.32025 345.997904 157.061208L349.022092 168.401913C349.448767 166.732361 350.577662 165.690039 352.514787 165.690039 353.06375 165.690039 353.557978 165.786379 354 165.968525zM306 163.5L298.5 156.288462 300.6 154.269231 306 159.461538 317.4 148.5 319.5 150.519231 306 163.5z"/>
    <path d="M364.447036 169.514769C363.774987 167.771811 362.494053 166.690039 360.514787 166.690039 358.548686 166.690039 357.271659 167.757466 356.596029 169.480074 356.555777 169.331983 356.511629 169.183146 356.463319 169.034259 355.795483 166.976038 354.520461 165.690039 352.514787 165.690039 350.577662 165.690039 349.448767 166.732361 349.022092 168.401913L345.997904 157.061208C345.41857 155.32025 343.445478 154.602762 341.606673 155.215698 339.635149 155.872872 338.522821 157.77972 339.024496 160.288097L342.535822 175.212387C342.097252 174.723384 341.611089 174.237467 341.084609 173.779857 339.98748 172.826245 338.843467 172.105887 337.6729 171.715698 333.724837 170.399677 330.102967 174.47428 333.114787 178.490039 333.663959 179.22227 334.419187 180.165838 335.528516 181.515522 336.034519 182.131159 338.141181 184.675204 338.648754 185.29181 338.808286 185.485613 338.96168 185.672307 339.110636 185.853989 342.969849 190.561059 345.014787 193.39415 345.014787 194.190039 345.014787 194.608438 344.737095 194.98166 344.084222 195.515251 344.057312 195.537245 343.62832 195.879865 343.510591 195.979785 343.284573 196.171612 343.12496 196.332416 343.005194 196.504475 342.437467 197.320085 342.922293 198.029423 344.311717 198.646945 345.404618 199.132679 346.880945 199.341942 348.654509 199.333704 349.950711 199.327684 351.333712 199.205943 352.717751 199.006894 353.214265 198.935487 353.675962 198.858958 354.091145 198.782347 354.303845 198.743099 354.465883 198.711088 354.570047 198.689399 355.633568 198.664643 356.397137 197.921678 357.313786 196.455039 358.387914 194.736433 358.420777 194.690039 358.514787 194.690039 358.483513 194.690039 358.558819 194.771139 358.692573 195.038646 358.762536 195.178572 359.168786 196.116072 359.317573 196.413646 360.049625 197.877749 360.997296 198.690039 362.514787 198.690039L365.505418 198.690039C366.403314 198.690039 366.927812 197.945551 366.644933 197.09784 366.54624 196.912409 366.443313 196.640484 366.331654 196.118487 366.13455 195.197043 366.014787 193.906736 366.014787 192.190039 366.014787 190.97087 366.459752 190.19218 367.62834 189.023593 367.743435 188.908498 368.238435 188.423498 368.36834 188.293593 370.195175 186.466757 371.014787 184.882176 371.014787 182.190039L371.014787 172.190039C371.014787 171.744346 370.909202 171.110835 370.587 170.466433 370.036356 169.365143 369.0237 168.690039 367.514787 168.690039 366.155778 168.690039 365.212932 169.240505 364.660818 170.157812 364.60091 169.945466 364.530096 169.730183 364.447036 169.514769zM365.505418 197.690039L362.514787 197.690039C361.448944 197.690039 360.792449 197.127329 360.212 195.966433 360.079537 195.701507 359.673287 194.764007 359.587 194.591433 359.29367 194.004773 359.001418 193.690039 358.514787 193.690039 358.064486 193.690039 357.727915 193.980009 357.341149 194.526031 357.21517 194.703884 357.087993 194.903022 356.909884 195.195804 357.038295 194.984717 356.574882 195.750489 356.465787 195.92504 355.710736 197.133123 355.130614 197.690039 354.514787 197.690039 354.320712 197.720334 354.150068 197.754593 353.909685 197.798949 353.507014 197.873251 353.058265 197.947634 352.575398 198.017078 351.233508 198.210066 349.894494 198.327934 348.649865 198.333715 347.005261 198.341353 345.65605 198.150109 344.717856 197.733134 343.817928 197.333166 343.733131 197.2091 343.825936 197.075773 343.885698 196.989918 343.992043 196.882779 344.157674 196.742204 344.261866 196.653774 344.679956 196.31986 344.71705 196.289544 345.586364 195.579056 346.014787 195.003248 346.014787 194.190039 346.014787 193.016541 344.090978 190.351265 339.883951 185.219967 339.734564 185.03776 339.580757 184.850562 339.42082 184.656268 338.911922 184.038052 336.80558 181.494393 336.301057 180.880557 335.200575 179.541637 334.452673 178.607221 333.914787 177.890039 331.536775 174.719358 334.276164 171.637545 337.356673 172.664381 338.385845 173.007438 339.42282 173.660398 340.428592 174.534603 340.978588 175.012653 341.483996 175.526097 341.932333 176.039315 342.200078 176.345806 342.387762 176.582046 342.483652 176.712487 343.196484 177.570799 344.019081 177.150257 343.772071 176.100467L340.001495 160.07552C339.602497 158.079082 340.428907 156.662379 341.9229 156.164381 343.279747 155.712099 344.662727 156.215001 345.040445 157.348153L348.775366 171.357735C349.074081 172.477914 350.028967 172.311193 349.915842 171.150749 349.901375 171.061236 349.886704 170.961212 349.871641 170.820158 349.801665 170.164886 349.811844 169.455184 349.954927 168.801575 350.251137 167.448483 351.022809 166.690039 352.514787 166.690039 354.009112 166.690039 354.963796 167.652942 355.512138 169.342891 355.850944 170.387069 355.964026 171.453057 355.960694 172.18173 355.972654 172.374173 355.984036 172.491543 355.996764 172.577541 356.005131 172.634072 356.014477 172.68123 356.027802 172.726045 356.042717 172.774769 356.042717 172.774769 356.084106 172.857196 356.156842 172.986909 356.156842 172.986909 356.503565 173.109906 356.872969 173.004929 356.872969 173.004929 356.956521 172.866017 357.001499 172.779605 357.001499 172.779605 357.017014 172.729617 357.030694 172.684385 357.04009 172.637268 357.048439 172.580802 357.060911 172.49645 357.071902 172.381733 357.082139 172.23377 357.079125 171.594296 357.1883 170.723332 357.515581 169.874532 358.050691 168.486726 358.994053 167.690039 360.514787 167.690039 362.03552 167.690039 362.978883 168.486726 363.513993 169.874532 363.841273 170.723332 363.950448 171.594296 363.946292 172.191703 363.962173 172.395601 363.977626 172.514116 363.996027 172.604183 364.008905 172.667216 364.023829 172.721209 364.045851 172.773904 364.122782 172.957982 364.236567 173.095156 364.507202 173.106996 364.793819 173.119536 364.923524 172.976334 365.008115 172.78611 365.031918 172.732584 365.047959 172.678029 365.061944 172.614102 365.081655 172.524003 365.098637 172.404931 365.114378 172.252703 365.110826 171.846008 365.181239 171.365461 365.394431 170.906174 365.751792 170.136299 366.403532 169.690039 367.514787 169.690039 368.630873 169.690039 369.305718 170.139935 369.692573 170.913646 369.832387 171.193274 369.923794 171.497963 369.974715 171.803489 370.004996 171.985179 370.014787 172.122242 370.014787 172.190039L370.014787 182.190039C370.014787 184.581236 369.316541 185.931178 367.661233 187.586486 367.536138 187.711581 367.041138 188.196581 366.921233 188.316486 365.583154 189.654565 365.014787 190.649208 365.014787 192.190039 365.014787 193.973342 365.140969 195.332812 365.353776 196.327662 365.474251 196.890874 365.601756 197.252924 365.70881 197.454892 365.757222 197.628942 365.700722 197.690039 365.505418 197.690039zM351 180L353 180 353 190 351 190 351 180zM356 180L358 180 358 190 356 190 356 180zM361 180L363 180 363 190 361 190 361 180zM309 121C328.329966 121 344 105.329966 344 86 344 66.6700338 328.329966 51 309 51 289.670034 51 274 66.6700338 274 86 274 105.329966 289.670034 121 309 121zM309 131C284.147186 131 264 110.852814 264 86 264 61.1471863 284.147186 41 309 41 333.852814 41 354 61.1471863 354 86 354 110.852814 333.852814 131 309 131z"/>
  </g>
</svg>
