<svg xmlns="http://www.w3.org/2000/svg" width="16" height="16" viewBox="0 0 16 16"><path fill="#222" fill-rule="evenodd" d="M5.172 7H3.107m9.79-.005L12.9 7h-2.071A3.012 3.012 0 0 0 8 5c-1.3 0-2.413.838-2.828 2M3.107 7H1v7.003c0 .544.45.997 1.007.997h11.986c.557 0 1.007-.446 1.007-.997V7h-2.101c.066.323.101.658.101 1 0 2.75-2.25 5-5 5s-5-2.25-5-5c0-.352.037-.695.107-1zM14.4 0H1.6C.72 0 0 .72 0 1.6v12.8c0 .88.72 1.6 1.6 1.6h12.8c.88 0 1.6-.72 1.6-1.6V1.6c0-.88-.72-1.6-1.6-1.6zm0 3.6c0 .24-.16.4-.4.4h-1.6c-.24 0-.4-.16-.4-.4V2c0-.24.16-.4.4-.4H14c.24 0 .4.16.4.4v1.6zM5.172 7h5.656c.111.313.172.65.172 1 0 1.65-1.35 3-3 3S5 9.65 5 8c0-.35.06-.687.172-1z"/></svg>