<svg xmlns="http://www.w3.org/2000/svg" width="16" height="16" viewBox="0 0 16 16">
  <path fill="#222222" fill-rule="evenodd" d="M5.17239408,7 L3.10682416,7 M12.8978889,6.99531296 C12.8982109,6.99687505 12.898532,6.99843739 12.8988525,7 L10.8276059,7 C10.4134435,5.8377678 9.29980706,5 8,5 C6.70019294,5 5.5865565,5.8377678 5.17239408,7 L5.17239408,7 M3.10682416,7 L1,7 L1,14.0029699 C1,14.5469637 1.45078007,15 2.00684547,15 L13.9931545,15 C14.5500512,15 15,14.5536144 15,14.0029699 L15,7 L12.8988525,7 C12.9651602,7.3233432 13,7.65780051 13,8 C13,10.75 10.75,13 8,13 C5.25,13 3,10.75 3,8 C3,7.64816387 3.03682969,7.30451211 3.10682416,7 L3.10682416,7 L3.10682416,7 Z M14.4,0 L1.6,0 C0.72,0 0,0.72 0,1.6 L0,14.4 C0,15.28 0.72,16 1.6,16 L14.4,16 C15.28,16 16,15.28 16,14.4 L16,1.6 C16,0.72 15.28,0 14.4,0 L14.4,0 L14.4,0 Z M14.4,3.6 C14.4,3.84 14.24,4 14,4 L12.4,4 C12.16,4 12,3.84 12,3.6 L12,2 C12,1.76 12.16,1.6 12.4,1.6 L14,1.6 C14.24,1.6 14.4,1.76 14.4,2 L14.4,3.6 L14.4,3.6 L14.4,3.6 Z M5.17239408,7 L10.8276059,7 C10.9391892,7.31312763 11,7.64980706 11,8 C11,9.65 9.65,11 8,11 C6.35,11 5,9.65 5,8 C5,7.64980706 5.06081079,7.31312763 5.17239408,7 L5.17239408,7 L5.17239408,7 Z"/>
</svg>
