<svg xmlns="http://www.w3.org/2000/svg" width="16" height="16" viewBox="0 0 16 16">
  <path fill="#222222" fill-rule="evenodd" d="M4.13990385,14.60625 L1.2854458,14.60625 L1.2854458,6.04287587 L4.13990385,6.04287587 L4.13990385,14.60625 L4.13990385,14.60625 Z M2.71267483,4.42534965 C1.76118881,4.42534965 1,3.66416084 1,2.71267483 C1,1.76118881 1.76118881,1 2.71267483,1 C3.66416084,1 4.42534965,1.76118881 4.42534965,2.71267483 C4.42534965,3.66416084 3.66416084,4.42534965 2.71267483,4.42534965 L2.71267483,4.42534965 Z M14.60625,14.60625 L11.751792,14.60625 L11.751792,9.56337413 C11.751792,8.80218531 11.0857517,8.1361451 10.3245629,8.1361451 C9.56337413,8.1361451 8.89733392,8.80218531 8.89733392,9.56337413 L8.89733392,14.60625 L6.04287587,14.60625 L6.04287587,6.04287587 L8.89733392,6.04287587 L8.89733392,7.18465909 C9.37307692,6.42347028 10.4197115,5.85257867 11.276049,5.85257867 C13.0838724,5.85257867 14.60625,7.37495629 14.60625,9.18277972 L14.60625,14.60625 L14.60625,14.60625 Z"/>
</svg>
