<svg xmlns="http://www.w3.org/2000/svg" width="16" height="16" viewBox="0 0 16 16"><path fill-rule="evenodd" d="M5.375 14.986C3.125 15.117 1.5 14.329 0 13.41c1.625.262 3.75-.394 4.875-1.445-1.625-.131-2.625-1.05-3.125-2.495.5.131 1 0 1.375 0C1.625 8.945.625 8.025.5 5.924c.375.263.875.394 1.375.394C.75 5.661 0 3.166.875 1.59 2.5 3.43 4.5 5.005 7.75 5.267 6.875 1.59 11.625-.38 13.5 2.115c.875-.13 1.5-.525 2.125-.788-.25.92-.75 1.445-1.375 1.97.625-.13 1.25-.262 1.75-.525-.125.657-.75 1.182-1.375 1.707-.125 6.041-3.75 10.244-9.25 10.507z"/></svg>