<svg xmlns="http://www.w3.org/2000/svg" width="16" height="14" viewBox="0 0 16 14"><path fill="#222" fill-rule="evenodd" d="M5.375 13.986C3.125 14.117 1.5 13.329 0 12.41c1.625.262 3.75-.394 4.875-1.445C3.25 10.834 2.25 9.915 1.75 8.47c.5.131 1 0 1.375 0C1.625 7.945.625 7.025.5 4.924c.375.263.875.394 1.375.394C.75 4.661 0 2.166.875.59 2.5 2.43 4.5 4.005 7.75 4.267 6.875.59 11.625-1.38 13.5 1.115c.875-.13 1.5-.525 2.125-.788-.25.92-.75 1.445-1.375 1.97.625-.13 1.25-.262 1.75-.525-.125.657-.75 1.182-1.375 1.707-.125 6.041-3.75 10.244-9.25 10.507z"/></svg>