<svg xmlns="http://www.w3.org/2000/svg" width="16" height="16" viewBox="0 0 16 16"><path fill-rule="evenodd" d="M8 .48C3.84.48.48 3.84.48 8c0 1.52.48 2.96 1.2 4.16L.56 15.6l3.6-1.2c1.12.72 2.48 1.04 3.84 1.04 4.16 0 7.52-3.36 7.52-7.52S12.16.48 8 .48zm4.08 10.56c-.16.48-1.04.96-1.44.96-.4 0-.4.32-2.48-.64S4.8 8.24 4.72 8.08c-.08-.16-.8-1.2-.8-2.16 0-1.04.56-1.52.8-1.68.16-.24.4-.32.56-.32h.4c.08 0 .32-.08.48.4.16.48.56 1.44.56 1.6.08.08.08.24 0 .4-.08.08-.08.24-.24.32-.16.08-.24.24-.32.32-.08.16-.24.24-.08.48.08.24.48.88 1.12 1.52.8.72 1.44.96 1.68 1.12.24.16.32.08.48 0 .16-.16.56-.56.72-.8.16-.24.32-.16.48-.08.16.08 1.2.64 1.36.72.16.08.32.16.4.24-.08 0-.08.4-.24.88z"/></svg>